<svg width="528" height="100" viewBox="0 0 528 100" fill="none" xmlns="http://www.w3.org/2000/svg">
<path d="M26.9879 63.424H19.9552V24.0224H48.1562V30.1811H26.9879V39.839H43.163V45.6478H26.9879V63.424Z" fill="#51C28A"/>
<path d="M60.8969 57.6852H82.7685V63.424H53.7939V24.0224H82.0653V30.1811H60.8969V40.5389H77.1424V46.4176H60.8969V57.6852Z" fill="#51C28A"/>
<path d="M89.7292 63.424V24.0224H96.9025V57.3353H116.453V63.424H89.7292Z" fill="#51C28A"/>
<path d="M140.205 57.3353V63.424H122.553V57.3353H127.897V30.1811H122.553V24.0224H140.205V30.1811H135V57.3353H140.205Z" fill="#51C28A"/>
<path d="M156.093 63.424H148.92V24.0224H164.814C169.221 24.0224 172.644 25.1188 175.082 27.3117C177.52 29.5046 178.739 32.8172 178.739 37.2496C178.739 41.1221 177.473 44.1548 174.941 46.3476C172.456 48.5405 169.08 49.637 164.814 49.637H156.093V63.424ZM163.829 29.8312H156.093V44.3881H163.829C166.361 44.3881 168.401 43.7815 169.948 42.5685C171.495 41.3554 172.269 39.5358 172.269 37.1096C172.269 34.6368 171.495 32.8172 169.948 31.6508C168.448 30.4377 166.408 29.8312 163.829 29.8312Z" fill="#51C28A"/>
<path d="M190.768 57.6852H212.639V63.424H183.665V24.0224H211.936V30.1811H190.768V40.5389H207.013V46.4176H190.768V57.6852Z" fill="#51C28A"/>
<path d="M249.895 64.1939C247.738 64.1939 245.605 63.9372 243.495 63.424C241.432 62.9108 239.557 62.1176 237.869 61.0445C236.181 59.9714 234.845 58.5717 233.861 56.8454C232.876 55.0725 232.36 52.9496 232.313 50.4768H239.557C239.557 50.7101 239.651 51.2233 239.838 52.0164C240.026 52.763 240.448 53.5794 241.104 54.4659C241.808 55.3524 242.886 56.1222 244.339 56.7754C245.84 57.4286 247.856 57.7552 250.387 57.7552C253.154 57.7552 255.193 57.242 256.506 56.2156C257.865 55.1891 258.545 54.0927 258.545 52.9263C258.545 51.6199 258.076 50.5934 257.139 49.8469C256.248 49.0537 255.029 48.4239 253.482 47.9573C251.981 47.4441 250.317 46.9775 248.489 46.5576C246.707 46.1377 244.902 45.6711 243.073 45.1579C241.292 44.598 239.651 43.8748 238.151 42.9884C236.697 42.0552 235.548 40.8655 234.704 39.4191C233.861 37.9728 233.486 36.1298 233.579 33.8903C233.814 30.5777 235.408 27.9882 238.361 26.1219C241.315 24.2557 245.23 23.3225 250.106 23.3225C252.919 23.3225 255.521 23.8358 257.912 24.8622C260.35 25.842 262.296 27.335 263.749 29.3413C265.25 31.3009 266 33.8203 266 36.8997H259.038C259.038 35.4533 258.709 34.2869 258.053 33.4004C257.397 32.4673 256.553 31.7674 255.521 31.3009C254.537 30.7876 253.482 30.461 252.357 30.3211C251.231 30.1344 250.223 30.0411 249.332 30.0411C246.988 30.0411 245.043 30.4377 243.495 31.2309C241.995 32.024 241.245 33.1904 241.245 34.7301C241.198 36.0365 241.643 37.0863 242.581 37.8795C243.519 38.6726 244.761 39.3025 246.308 39.769C247.856 40.2356 249.543 40.6555 251.372 41.0288C253.2 41.402 255.029 41.8686 256.857 42.4285C258.686 42.9417 260.35 43.6416 261.851 44.528C263.351 45.3679 264.523 46.5343 265.367 48.0273C266.211 49.4737 266.563 51.3633 266.422 53.6961C266.234 57.0087 264.617 59.5982 261.569 61.4644C258.522 63.2841 254.63 64.1939 249.895 64.1939Z" fill="#51C28A"/>
<path d="M290.663 64.1239C286.959 64.1239 283.606 63.3774 280.606 61.8844C277.605 60.3447 275.214 58.0818 273.433 55.0958C271.698 52.1098 270.83 48.3772 270.83 43.8982C270.877 39.5124 271.768 35.7799 273.503 32.7006C275.238 29.6212 277.605 27.2884 280.606 25.702C283.606 24.1157 287.029 23.3225 290.874 23.3225C294.531 23.3225 297.648 23.9757 300.227 25.2821C302.806 26.5885 304.869 28.3615 306.416 30.601C308.01 32.8405 309.041 35.36 309.51 38.1594H302.126C301.798 36.1065 301.024 34.4968 299.805 33.3304C298.633 32.1173 297.25 31.2775 295.656 30.811C294.062 30.2977 292.468 30.0411 290.874 30.0411C286.701 30.0411 283.489 31.2075 281.239 33.5404C279.035 35.8732 277.933 39.1625 277.933 43.4083C277.933 47.934 279.012 51.4099 281.168 53.8361C283.372 56.2622 286.56 57.4753 290.733 57.4753C292.468 57.4753 294.156 57.2187 295.796 56.7054C297.437 56.1456 298.844 55.2591 300.016 54.046C301.188 52.7863 301.938 51.1066 302.267 49.0071H309.721C309.205 51.8998 308.151 54.4893 306.556 56.7754C305.009 59.015 302.899 60.8112 300.227 62.1643C297.602 63.4707 294.413 64.1239 290.663 64.1239Z" fill="#51C28A"/>
<path d="M323.123 63.424H315.879V24.0224H323.123V40.6089H341.9V24.0224H349.073V63.424H341.9V46.1377H323.123V63.424Z" fill="#51C28A"/>
<path d="M363.975 57.6852H385.847V63.424H356.872V24.0224H385.143V30.1811H363.975V40.5389H380.22V46.4176H363.975V57.6852Z" fill="#51C28A"/>
<path d="M392.315 63.424V24.0224H406.873C411.983 24.0224 415.968 24.8855 418.828 26.6118C421.688 28.2915 423.118 31.2775 423.118 35.5699C423.118 38.7893 422.345 41.402 420.797 43.4083C419.25 45.3679 417.023 46.3476 414.116 46.3476C415.757 46.3476 416.976 46.7209 417.773 47.4674C418.617 48.1673 419.203 49.0537 419.531 50.1269C419.86 51.2 420.094 52.3197 420.235 53.4861C420.375 54.6526 420.539 55.7023 420.727 56.6355C420.961 57.5219 421.383 58.1518 421.993 58.5251C422.649 58.8983 423.657 58.8283 425.017 58.3151V62.4442C424.126 63.1907 423.071 63.6806 421.852 63.9139C420.633 64.1939 419.438 64.1239 418.266 63.704C417.093 63.284 416.109 62.4676 415.312 61.2545C414.515 59.9947 414.116 58.2451 414.116 56.0056C414.116 53.9527 413.999 52.3197 413.765 51.1066C413.53 49.8469 412.944 48.9138 412.006 48.3072C411.069 47.654 409.615 47.2575 407.646 47.1175C405.677 46.9309 402.958 46.9309 399.488 47.1175V63.424H392.315ZM399.488 41.9386H406.591C408.889 41.9386 410.788 41.8453 412.288 41.6586C413.788 41.4254 414.89 40.9121 415.593 40.119C416.343 39.2792 416.718 37.9494 416.718 36.1298C416.718 34.1236 416.273 32.6772 415.382 31.7907C414.491 30.9043 413.179 30.3677 411.444 30.1811C409.756 29.9478 407.67 29.8312 405.185 29.8312H399.488V41.9386Z" fill="#51C28A"/>
<path d="M438.216 57.6852H460.088V63.424H431.113V24.0224H459.385V30.1811H438.216V40.5389H454.462V46.4176H438.216V57.6852Z" fill="#51C28A"/>
<path d="M466.556 63.424V24.0224H481.114C486.224 24.0224 490.21 24.8855 493.07 26.6118C495.93 28.2915 497.36 31.2775 497.36 35.5699C497.36 38.7893 496.586 41.402 495.039 43.4083C493.492 45.3679 491.265 46.3476 488.358 46.3476C489.999 46.3476 491.218 46.7209 492.015 47.4674C492.859 48.1673 493.445 49.0537 493.773 50.1269C494.101 51.2 494.335 52.3197 494.476 53.4861C494.617 54.6526 494.781 55.7023 494.968 56.6355C495.203 57.5219 495.625 58.1518 496.234 58.5251C496.891 58.8983 497.899 58.8283 499.258 58.3151V62.4442C498.368 63.1907 497.313 63.6806 496.094 63.9139C494.875 64.1939 493.679 64.1239 492.507 63.704C491.335 63.284 490.35 62.4676 489.553 61.2545C488.756 59.9947 488.358 58.2451 488.358 56.0056C488.358 53.9527 488.24 52.3197 488.006 51.1066C487.772 49.8469 487.186 48.9138 486.248 48.3072C485.31 47.654 483.857 47.2575 481.888 47.1175C479.918 46.9309 477.199 46.9309 473.73 47.1175V63.424H466.556ZM473.73 41.9386H480.833C483.13 41.9386 485.029 41.8453 486.529 41.6586C488.03 41.4254 489.131 40.9121 489.835 40.119C490.585 39.2792 490.96 37.9494 490.96 36.1298C490.96 34.1236 490.514 32.6772 489.624 31.7907C488.733 30.9043 487.42 30.3677 485.685 30.1811C483.997 29.9478 481.911 29.8312 479.426 29.8312H473.73V41.9386Z" fill="#51C28A"/>
<path fill-rule="evenodd" clip-rule="evenodd" d="M519.209 89.6685L519.209 8.74815L528 8.74814L528 89.6684L519.209 89.6685Z" fill="#51C28A"/>
<path fill-rule="evenodd" clip-rule="evenodd" d="M361.523 80.9203L519.209 80.9196L519.209 89.6685L361.523 89.6684L361.523 80.9203Z" fill="#51C28A"/>
<path fill-rule="evenodd" clip-rule="evenodd" d="M0 0L528 2.15949e-06L528 8.74814L8.7912 8.74807L8.79131 89.6684L0.000469193 89.6684L0 0Z" fill="#51C28A"/>
<path fill-rule="evenodd" clip-rule="evenodd" d="M166.477 89.6684L8.79131 89.6684L8.79076 80.921L166.476 80.9202L166.477 89.6684Z" fill="#51C28A"/>
<path d="M199.157 89.6422C199.157 92.2317 198.641 94.2496 197.609 95.6959C196.601 97.1189 195.171 98.1104 193.319 98.6703C191.467 99.2302 189.287 99.5101 186.779 99.5101H181.329V79.8093H186.779C189.287 79.8093 191.467 80.1825 193.319 80.9291C195.171 81.6522 196.601 82.737 197.609 84.1834C198.641 85.6297 199.157 87.4493 199.157 89.6422ZM184.88 96.5707H187.799C189.346 96.5707 190.682 96.3958 191.807 96.0458C192.933 95.6726 193.8 94.9844 194.409 93.9813C195.019 92.9782 195.324 91.5201 195.324 89.6072C195.324 87.3444 194.644 85.6647 193.284 84.5683C191.948 83.4485 190.12 82.8886 187.799 82.8886H184.88V96.5707Z" fill="#51C28A"/>
<path d="M205.853 96.6407H216.789V99.5101H202.302V79.8093H216.437V82.8886H205.853V88.0675H213.976V91.0069H205.853V96.6407Z" fill="#51C28A"/>
<path d="M233.42 79.8093H237.359L230.818 99.5101H224.841L218.3 79.8093H222.203L227.794 98.0054L233.42 79.8093Z" fill="#51C28A"/>
<path d="M243.626 96.6407H254.562V99.5101H240.075V79.8093H254.211V82.8886H243.626V88.0675H251.749V91.0069H243.626V96.6407Z" fill="#51C28A"/>
<path d="M258.043 99.5101V79.8093H261.629V96.4657H271.405V99.5101H258.043Z" fill="#51C28A"/>
<path d="M282.72 100C279.532 100 277.094 99.0785 275.406 97.2356C273.718 95.3693 272.874 92.8615 272.874 89.7122C272.874 87.636 273.238 85.8397 273.964 84.3233C274.691 82.7837 275.781 81.5939 277.235 80.7541C278.711 79.8909 280.54 79.4594 282.72 79.4594C285.955 79.4594 288.405 80.3925 290.069 82.2588C291.734 84.1017 292.566 86.5862 292.566 89.7122C292.566 91.7418 292.191 93.538 291.441 95.101C290.69 96.6407 289.589 97.8421 288.135 98.7053C286.682 99.5684 284.877 100 282.72 100ZM282.685 96.5707C284.795 96.5707 286.377 95.9175 287.432 94.6111C288.51 93.3048 289.049 91.6718 289.049 89.7122C289.049 88.3825 288.815 87.2044 288.346 86.1779C287.877 85.1282 287.174 84.3117 286.236 83.7285C285.299 83.1219 284.115 82.8187 282.685 82.8187C280.622 82.8187 279.051 83.4485 277.973 84.7083C276.895 85.968 276.356 87.636 276.356 89.7122C276.356 90.9953 276.578 92.1617 277.024 93.2114C277.492 94.2379 278.196 95.0544 279.133 95.6609C280.071 96.2675 281.255 96.5707 282.685 96.5707Z" fill="#51C28A"/>
<path d="M299.363 99.5101H295.776V79.8093H303.723C305.927 79.8093 307.638 80.3575 308.857 81.4539C310.076 82.5504 310.686 84.2067 310.686 86.4229C310.686 88.3591 310.053 89.8755 308.787 90.9719C307.544 92.0684 305.857 92.6166 303.723 92.6166H299.363V99.5101ZM303.231 82.7137H299.363V89.9921H303.231C304.497 89.9921 305.517 89.6889 306.29 89.0823C307.064 88.4758 307.451 87.566 307.451 86.3529C307.451 85.1165 307.064 84.2067 306.29 83.6235C305.54 83.0169 304.52 82.7137 303.231 82.7137Z" fill="#51C28A"/>
<path d="M316.7 96.6407H327.636V99.5101H313.149V79.8093H327.284V82.8886H316.7V88.0675H324.823V91.0069H316.7V96.6407Z" fill="#51C28A"/>
<path d="M330.87 99.5101V79.8093H338.149C340.704 79.8093 342.697 80.2409 344.127 81.104C345.557 81.9438 346.272 83.4369 346.272 85.5831C346.272 87.1927 345.885 88.4991 345.111 89.5022C344.338 90.482 343.224 90.9719 341.771 90.9719C342.591 90.9719 343.201 91.1585 343.599 91.5318C344.021 91.8817 344.314 92.325 344.479 92.8615C344.643 93.3981 344.76 93.9579 344.83 94.5412C344.9 95.1244 344.983 95.6493 345.076 96.1158C345.193 96.5591 345.404 96.874 345.709 97.0606C346.037 97.2472 346.541 97.2123 347.221 96.9556V99.0202C346.776 99.3935 346.248 99.6384 345.639 99.7551C345.029 99.895 344.432 99.86 343.846 99.6501C343.26 99.4401 342.767 99.0319 342.369 98.4253C341.97 97.7955 341.771 96.9207 341.771 95.8009C341.771 94.7744 341.712 93.958 341.595 93.3514C341.478 92.7216 341.185 92.255 340.716 91.9517C340.247 91.6251 339.52 91.4268 338.536 91.3568C337.551 91.2635 336.192 91.2635 334.457 91.3568V99.5101H330.87ZM334.457 88.7674H338.008C339.157 88.7674 340.107 88.7207 340.857 88.6274C341.607 88.5108 342.158 88.2542 342.509 87.8576C342.884 87.4377 343.072 86.7728 343.072 85.863C343.072 84.8599 342.849 84.1367 342.404 83.6935C341.958 83.2502 341.302 82.9819 340.435 82.8886C339.591 82.772 338.548 82.7137 337.305 82.7137H334.457V88.7674Z" fill="#51C28A"/>
</svg>
