<svg width="23" height="23" viewBox="0 0 23 23" fill="none" xmlns="http://www.w3.org/2000/svg">
  <g clipPath="url(#clip0_1_768)">
    <path d="M18.231 7.82469C18.0028 7.74613 17.7663 7.67181 17.5228 7.60152C17.5628 7.43818 17.5995 7.27696 17.6322 7.11848C18.1683 4.5162 17.8178 2.41979 16.6209 1.72956C15.4732 1.06772 13.5962 1.75779 11.7006 3.40751C11.5183 3.56615 11.3355 3.7341 11.1528 3.91013C11.031 3.79367 10.9095 3.68112 10.7882 3.57347C8.80153 1.80948 6.81018 1.06611 5.61444 1.75834C4.46785 2.4221 4.12829 4.39293 4.61086 6.85913C4.65746 7.09734 4.71193 7.3406 4.77353 7.58793C4.49169 7.66793 4.21961 7.75322 3.95928 7.84395C1.6301 8.65601 0.142578 9.9287 0.142578 11.2488C0.142578 12.6122 1.73943 13.9798 4.16545 14.809C4.35691 14.8744 4.55556 14.9363 4.76029 14.995C4.69384 15.2625 4.63604 15.5247 4.58752 15.7803C4.12739 18.2037 4.48672 20.128 5.63026 20.7876C6.81144 21.4687 8.79378 20.7686 10.7241 19.0813C10.8766 18.9479 11.0298 18.8064 11.1831 18.6582C11.382 18.8496 11.5805 19.0308 11.7779 19.2008C13.6476 20.8097 15.4943 21.4594 16.6368 20.798C17.8168 20.1149 18.2003 18.0478 17.7024 15.5328C17.6644 15.3407 17.6201 15.1445 17.5704 14.9448C17.7096 14.9036 17.8463 14.8611 17.9795 14.817C20.5016 13.9813 22.1426 12.6304 22.1426 11.2488C22.1426 9.92392 20.6071 8.64266 18.231 7.82469ZM17.684 13.9249C17.5637 13.9647 17.4402 14.0032 17.3145 14.0405C17.036 13.1591 16.6603 12.2218 16.2004 11.2534C16.6392 10.3081 17.0005 9.38277 17.2711 8.50705C17.4962 8.57217 17.7146 8.64085 17.9251 8.71334C19.9609 9.41418 21.2027 10.4504 21.2027 11.2488C21.2027 12.0993 19.8616 13.2033 17.684 13.9249ZM16.7804 15.7153C17.0006 16.8274 17.032 17.8329 16.8862 18.6189C16.7551 19.3252 16.4916 19.7961 16.1658 19.9847C15.4725 20.386 13.9898 19.8643 12.3908 18.4883C12.2075 18.3306 12.0229 18.1622 11.8377 17.9839C12.4576 17.306 13.0771 16.5178 13.6818 15.6425C14.7453 15.5481 15.7501 15.3938 16.6613 15.1831C16.7062 15.3642 16.7461 15.5417 16.7804 15.7153ZM7.64288 19.9153C6.96549 20.1546 6.42599 20.1614 6.09987 19.9734C5.40592 19.5731 5.11743 18.0281 5.51094 15.9556C5.55602 15.7183 5.60966 15.4745 5.6715 15.2252C6.57272 15.4245 7.57016 15.5679 8.63624 15.6544C9.24498 16.5109 9.88242 17.2982 10.5248 17.9876C10.3844 18.1231 10.2446 18.2521 10.1056 18.3736C9.25207 19.1197 8.3967 19.6491 7.64288 19.9153ZM4.46941 13.9197C3.39667 13.553 2.51076 13.0765 1.90351 12.5565C1.35786 12.0892 1.08237 11.6253 1.08237 11.2488C1.08237 10.4477 2.2767 9.42593 4.26864 8.73143C4.51033 8.64716 4.76334 8.56774 5.02591 8.49314C5.3012 9.38865 5.66233 10.3249 6.09814 11.2717C5.6567 12.2325 5.29043 13.1837 5.01244 14.0897C4.82526 14.0359 4.64391 13.9793 4.46941 13.9197ZM5.53319 6.67864C5.11974 4.56566 5.39433 2.9717 6.0853 2.57173C6.8213 2.14563 8.44882 2.75315 10.1642 4.27627C10.2738 4.37362 10.3839 4.47551 10.4943 4.58093C9.85509 5.26728 9.22348 6.04868 8.62014 6.90017C7.58547 6.99607 6.59504 7.15012 5.68442 7.35642C5.62717 7.12612 5.57646 6.89985 5.53319 6.67864ZM15.023 9.02192C14.8053 8.64591 14.5818 8.27878 14.354 7.92169C15.0559 8.01042 15.7285 8.12821 16.36 8.27236C16.1704 8.88004 15.9341 9.51541 15.6559 10.1668C15.4563 9.78788 15.2453 9.40588 15.023 9.02192ZM11.1531 5.2526C11.5866 5.72224 12.0207 6.24659 12.4477 6.8155C12.0174 6.79518 11.5818 6.78461 11.1426 6.78461C10.7075 6.78461 10.2751 6.79494 9.84749 6.81492C10.2749 6.25129 10.7128 5.72765 11.1531 5.2526ZM7.25837 9.02842C7.04091 9.40549 6.83376 9.78541 6.63733 10.166C6.36365 9.51697 6.12951 8.87871 5.93825 8.26241C6.56594 8.12195 7.2353 8.00709 7.93277 7.92004C7.70173 8.28043 7.47641 8.65025 7.25837 9.02834V9.02842ZM7.95286 14.6446C7.23225 14.5642 6.55283 14.4553 5.92529 14.3187C6.1196 13.6914 6.35891 13.0395 6.63839 12.3765C6.83532 12.7568 7.0433 13.1369 7.26209 13.5148H7.26213C7.48498 13.8998 7.71587 14.2769 7.95286 14.6446ZM11.1791 17.3113C10.7336 16.8307 10.2893 16.299 9.8554 15.7272C10.2766 15.7437 10.7061 15.7522 11.1426 15.7522C11.591 15.7522 12.0343 15.7421 12.4706 15.7227C12.0422 16.3048 11.6096 16.8373 11.1791 17.3113ZM15.6649 12.3427C15.9589 13.0129 16.2068 13.6614 16.4036 14.278C15.7657 14.4235 15.077 14.5407 14.3514 14.6278C14.5798 14.2659 14.8052 13.8924 15.0268 13.5083C15.2509 13.1197 15.4637 12.7305 15.6649 12.3427ZM14.2127 13.0388C13.8688 13.6351 13.5157 14.2043 13.1573 14.7416C12.5044 14.7883 11.83 14.8123 11.1426 14.8123C10.4579 14.8123 9.792 14.7911 9.15072 14.7495C8.77784 14.2051 8.4171 13.6342 8.07539 13.0439H8.07547C7.73467 12.4553 7.421 11.8617 7.13678 11.2714C7.42092 10.6797 7.73376 10.0854 8.07261 9.49783L8.07254 9.49794C8.41229 8.90879 8.76985 8.34066 9.13929 7.7997C9.79357 7.75024 10.4645 7.72444 11.1425 7.72444H11.1426C11.8237 7.72444 12.4955 7.75044 13.1496 7.80033C13.5133 8.33733 13.8685 8.90362 14.2096 9.49285C14.5545 10.0887 14.8714 10.679 15.158 11.258C14.8723 11.8469 14.5561 12.4432 14.2127 13.0388ZM16.1514 2.54377C16.8881 2.96861 17.1746 4.682 16.7118 6.92879C16.6822 7.07216 16.649 7.21818 16.6129 7.36617C15.7001 7.15557 14.709 6.99885 13.6713 6.9015C13.0668 6.04065 12.4404 5.25804 11.8116 4.5805C11.9806 4.41787 12.1495 4.2628 12.3176 4.11646C13.9418 2.70299 15.4598 2.14492 16.1514 2.54377ZM11.1426 9.28429C12.2275 9.28429 13.1071 10.1638 13.1071 11.2488C13.1071 12.3338 12.2275 13.2133 11.1426 13.2133C10.0576 13.2133 9.17805 12.3338 9.17805 11.2488C9.17805 10.1638 10.0576 9.28429 11.1426 9.28429Z" fill="#00D8FF"/>
  </g>
  <defs>
    <clipPath id="clip0_1_768">
      <rect width="22" height="22" fill="white" transform="translate(0.142578 0.277344)"/>
    </clipPath>
  </defs>
</svg>
