<svg xmlns="http://www.w3.org/2000/svg" width="32" height="32" fill="none"><path fill="#131313" d="M0 4a4 4 0 0 1 4-4h24a4 4 0 0 1 4 4v24a4 4 0 0 1-4 4H4a4 4 0 0 1-4-4z"/><path fill="#51C28A" d="M20.378 16.08h-2.547c-.88 0-1.592.712-1.592 1.592v3.024c0 .88.713 1.592 1.592 1.592h1.353s.085.736 0 1.195c-.116.623-1.068.526-1.592.796-.585.301-.73.962-.478 1.592.478 1.194 2.98.183 4.06-1.194.898-1.145.796-2.946.796-2.946v-4.06c0-.879-.713-1.591-1.592-1.591m6.527 0h-2.547c-.88 0-1.592.712-1.592 1.592v3.024c0 .88.713 1.592 1.592 1.592h1.353s.085.736 0 1.195c-.115.623-1.068.526-1.592.796-.585.301-.73.962-.477 1.592.477 1.194 2.98.183 4.06-1.194.897-1.145.795-2.946.795-2.946v-4.06a1.59 1.59 0 0 0-1.592-1.591m-15.439-.028h2.547c.88 0 1.592-.713 1.592-1.592v-3.025c0-.88-.712-1.592-1.592-1.592H12.66s-.085-.736 0-1.194c.116-.623 1.068-.526 1.592-.796.586-.301.73-.962.478-1.592-.478-1.194-2.98-.183-4.06 1.194C9.773 8.6 9.874 10.4 9.874 10.4v4.06c0 .88.713 1.592 1.592 1.592m-6.527 0h2.547c.88 0 1.592-.713 1.592-1.592v-3.025c0-.88-.713-1.592-1.592-1.592H6.133s-.085-.736 0-1.194c.115-.623 1.068-.526 1.592-.796.585-.301.73-.962.478-1.592-.478-1.194-2.98-.183-4.06 1.194C3.245 8.6 3.347 10.4 3.347 10.4v4.06c0 .88.713 1.592 1.592 1.592"/></svg>
